<?xml version="1.0" standalone="no"?><!-- Generator: Adobe Fireworks CS6, Export SVG Extension by Aaron Beall (http://fireworks.abeall.com) . Version: 0.6.1  --><!DOCTYPE svg PUBLIC "-//W3C//DTD SVG 1.1//EN" "http://www.w3.org/Graphics/SVG/1.1/DTD/svg11.dtd"><svg id="Untitled-Page%201" viewBox="0 0 1920 1322" style="background-color:#ffffff00" version="1.1"	xmlns="http://www.w3.org/2000/svg" xmlns:xlink="http://www.w3.org/1999/xlink" xml:space="preserve"	x="0px" y="0px" width="1920px" height="1322px">	<g id="Layer%201">		<rect x="0" y="0" width="1920" height="690" fill="#f7f7f7"/>		<path d="M -60.198 22 L 1178 697.6616 L -64 704 L -60.198 22 Z" fill="#ffffff"/>		<g opacity="0.502">			<g>				<path d="M 601.9996 1322 C 547.8678 1322 495.354 1311.3965 445.9167 1290.4854 C 422.1559 1280.4351 399.2385 1267.9961 377.8014 1253.5122 C 356.5675 1239.167 336.6003 1222.6924 318.454 1204.5459 C 300.3076 1186.3994 283.8326 1166.4316 269.4873 1145.1982 C 255.004 1123.7607 242.5645 1100.8428 232.5139 1077.0825 C 211.6027 1027.645 201 975.1313 201 920.9995 C 201 866.8677 211.6027 814.3535 232.5139 764.917 C 242.5645 741.1563 255.004 718.2388 269.4873 696.8013 C 283.8326 675.5674 300.3076 655.6001 318.454 637.4536 C 336.6003 619.3076 356.5675 602.833 377.8014 588.4868 C 399.2385 574.0039 422.1559 561.564 445.9167 551.5137 C 495.354 530.6025 547.8678 520 601.9996 520 C 656.1313 520 708.6453 530.6025 758.0825 551.5137 C 781.8428 561.564 804.7607 574.0039 826.1978 588.4868 C 847.4316 602.833 867.3994 619.3076 885.5457 637.4536 C 903.6919 655.6001 920.167 675.5674 934.5122 696.8013 C 948.9961 718.2388 961.4355 741.1563 971.4861 764.917 C 992.3975 814.3535 1003 866.8677 1003 920.9995 C 1003 975.1313 992.3975 1027.645 971.4861 1077.0825 C 961.4355 1100.8428 948.9961 1123.7607 934.5122 1145.1982 C 920.167 1166.4316 903.6919 1186.3994 885.5457 1204.5459 C 867.3994 1222.6924 847.4316 1239.167 826.1978 1253.5122 C 804.7607 1267.9961 781.8428 1280.4351 758.0825 1290.4854 C 708.6453 1311.3965 656.1313 1322 601.9996 1322 ZM 601.9996 520.2852 C 381.0449 520.2852 201.2854 700.0449 201.2854 920.9995 C 201.2854 1141.9541 381.0449 1321.7139 601.9996 1321.7139 C 822.9546 1321.7139 1002.7146 1141.9541 1002.7146 920.9995 C 1002.7146 700.0449 822.9546 520.2852 601.9996 520.2852 Z" fill="#f6f6f6"/>			</g>			<g>				<path d="M 601.9996 1299.3184 C 550.9299 1299.3184 501.3865 1289.3154 454.745 1269.5869 C 409.6957 1250.5317 369.2367 1223.2524 334.4917 1188.5078 C 299.7471 1153.7632 272.4681 1113.3042 253.4128 1068.2544 C 233.6841 1021.6128 223.6809 972.0693 223.6809 920.9995 C 223.6809 869.9297 233.6841 820.3857 253.4128 773.7451 C 272.4681 728.6953 299.7471 688.2363 334.4917 653.4917 C 369.2367 618.7471 409.6957 591.4683 454.745 572.4131 C 501.386 552.6846 550.9299 542.6816 601.9996 542.6816 C 653.0693 542.6816 702.6128 552.6846 749.2539 572.4131 C 794.3035 591.4683 834.7627 618.7471 869.5076 653.4917 C 904.2522 688.2363 931.5315 728.6953 950.5869 773.7451 C 970.3154 820.3857 980.3188 869.9297 980.3188 920.9995 C 980.3188 972.0693 970.3154 1021.6128 950.5869 1068.2544 C 931.5315 1113.3032 904.2522 1153.7632 869.5076 1188.5078 C 834.7627 1223.2524 794.3035 1250.5317 749.2539 1269.5869 C 702.6128 1289.3154 653.0693 1299.3184 601.9996 1299.3184 ZM 601.9996 543.396 C 393.7881 543.396 224.3955 712.7881 224.3955 920.9995 C 224.3955 1129.2109 393.7881 1298.604 601.9996 1298.604 C 810.2114 1298.604 979.604 1129.2109 979.604 920.9995 C 979.604 712.7881 810.2114 543.396 601.9996 543.396 Z" fill="#f6f6f6"/>			</g>			<g>				<path d="M 601.9996 1275.6367 C 553.9916 1275.6367 507.4185 1266.2324 463.5732 1247.687 C 421.2247 1229.7744 383.1917 1204.1309 350.5298 1171.4697 C 317.8683 1138.8076 292.2247 1100.7744 274.3116 1058.4258 C 255.766 1014.5811 246.3625 968.0073 246.3625 919.9995 C 246.3625 871.9922 255.766 825.4185 274.3116 781.5732 C 292.2247 739.2246 317.8683 701.1914 350.5298 668.5293 C 383.1917 635.8682 421.2247 610.2246 463.5732 592.3115 C 507.4185 573.7661 553.9916 564.3623 601.9996 564.3623 C 650.0076 564.3623 696.5807 573.7661 740.4258 592.3115 C 782.7744 610.2246 820.8081 635.8682 853.4697 668.5293 C 886.1318 701.1914 911.7749 739.2246 929.688 781.5732 C 948.2339 825.4185 957.6375 871.9922 957.6375 919.9995 C 957.6375 968.0073 948.2339 1014.5811 929.688 1058.4258 C 911.7749 1100.7744 886.1318 1138.8076 853.4697 1171.4697 C 820.8081 1204.1309 782.7744 1229.7744 740.4258 1247.687 C 696.5807 1266.2324 650.0076 1275.6367 601.9996 1275.6367 ZM 601.9996 565.5059 C 406.5309 565.5059 247.5056 724.5313 247.5056 919.9995 C 247.5056 1115.4678 406.5309 1274.4932 601.9996 1274.4932 C 797.4688 1274.4932 956.4944 1115.4678 956.4944 919.9995 C 956.4944 724.5313 797.4688 565.5059 601.9996 565.5059 Z" fill="#f6f6f6"/>			</g>			<g>				<path d="M 601.9996 1253.9551 C 557.0533 1253.9551 513.4502 1245.1514 472.4015 1227.7881 C 432.7537 1211.0186 397.1461 1187.0098 366.5679 1156.4316 C 335.9891 1125.8535 311.9813 1090.2451 295.2108 1050.5977 C 277.8479 1009.5488 269.0443 965.9458 269.0443 920.9995 C 269.0443 876.0532 277.8479 832.4502 295.2108 791.4014 C 311.9813 751.7534 335.9891 716.146 366.5679 685.5674 C 397.1461 654.9893 432.7537 630.981 472.4015 614.2104 C 513.4502 596.8477 557.0533 588.0439 601.9996 588.0439 C 646.9454 588.0439 690.5486 596.8477 731.5973 614.2104 C 771.2451 630.981 806.853 654.9893 837.4316 685.5674 C 868.0103 716.146 892.0183 751.7539 908.7886 791.4014 C 926.1521 832.4502 934.9556 876.0532 934.9556 920.9995 C 934.9556 965.9458 926.1521 1009.5488 908.7886 1050.5977 C 892.0183 1090.2451 868.0103 1125.8535 837.4316 1156.4316 C 806.853 1187.0098 771.2451 1211.0186 731.5973 1227.7881 C 690.5486 1245.1514 646.9454 1253.9551 601.9996 1253.9551 ZM 601.9996 589.6152 C 419.274 589.6152 270.6157 738.2739 270.6157 920.9995 C 270.6157 1103.7256 419.274 1252.3838 601.9996 1252.3838 C 784.7256 1252.3838 933.3843 1103.7256 933.3843 920.9995 C 933.3843 738.2739 784.7256 589.6152 601.9996 589.6152 Z" fill="#f6f6f6"/>			</g>			<g>				<path d="M 601.9996 1231.2739 C 560.1155 1231.2739 519.4827 1223.0698 481.2301 1206.8896 C 444.2831 1191.2617 411.1011 1168.8896 382.6055 1140.3936 C 354.11 1111.8984 331.7379 1078.7163 316.1097 1041.7695 C 299.9293 1003.5166 291.7252 962.8838 291.7252 920.9995 C 291.7252 879.1152 299.9293 838.4824 316.1097 800.23 C 331.7379 763.2832 354.11 730.1006 382.6055 701.6055 C 411.1011 673.1104 444.2831 650.7373 481.2301 635.1099 C 519.4827 618.9297 560.1155 610.7256 601.9996 610.7256 C 643.8838 610.7256 684.5161 618.9297 722.769 635.1099 C 759.7163 650.7373 792.8982 673.1104 821.3936 701.6055 C 849.8892 730.1006 872.2617 763.2832 887.8896 800.23 C 904.0703 838.4824 912.2744 879.1152 912.2744 920.9995 C 912.2744 962.8838 904.0703 1003.5166 887.8896 1041.7695 C 872.2617 1078.7163 849.8892 1111.8984 821.3936 1140.3936 C 792.8982 1168.8896 759.7163 1191.2617 722.769 1206.8896 C 684.5161 1223.0698 643.8838 1231.2739 601.9996 1231.2739 ZM 601.9996 612.7261 C 432.0168 612.7261 293.7258 751.0166 293.7258 920.9995 C 293.7258 1090.9824 432.0168 1229.2739 601.9996 1229.2739 C 771.9829 1229.2739 910.2737 1090.9824 910.2737 920.9995 C 910.2737 751.0166 771.9829 612.7261 601.9996 612.7261 Z" fill="#f6f6f6"/>			</g>			<g>				<path d="M 601.9996 1207.5918 C 525.1844 1207.5918 452.9646 1177.6763 398.6437 1123.3555 C 344.3223 1069.0342 314.4065 996.8145 314.4065 919.9995 C 314.4065 843.1841 344.3223 770.9644 398.6437 716.6436 C 452.9646 662.3223 525.1844 632.4063 601.9996 632.4063 C 678.8147 632.4063 751.0347 662.3223 805.3555 716.6436 C 859.6768 770.9644 889.5928 843.1846 889.5928 919.9995 C 889.5928 996.8145 859.6768 1069.0342 805.3555 1123.3555 C 751.0347 1177.6763 678.8147 1207.5918 601.9996 1207.5918 ZM 601.9996 634.8359 C 444.7596 634.8359 316.8356 762.7598 316.8356 919.9995 C 316.8356 1077.2393 444.7596 1205.1636 601.9996 1205.1636 C 759.2397 1205.1636 887.1636 1077.2393 887.1636 919.9995 C 887.1636 762.7598 759.2397 634.8359 601.9996 634.8359 Z" fill="#f6f6f6"/>			</g>			<g>				<path d="M 601.9996 1185.9111 C 531.2424 1185.9111 464.7183 1158.3545 414.6813 1108.3174 C 364.6448 1058.2803 337.0881 991.7563 337.0881 920.9995 C 337.0881 850.2427 364.6448 783.7183 414.6813 733.6816 C 464.7183 683.6445 531.2424 656.0884 601.9996 656.0884 C 672.7563 656.0884 739.2805 683.6445 789.3174 733.6816 C 839.3545 783.7183 866.9111 850.2427 866.9111 920.9995 C 866.9111 991.7563 839.3545 1058.2803 789.3174 1108.3174 C 739.2805 1158.3545 672.7563 1185.9111 601.9996 1185.9111 ZM 601.9996 658.9458 C 457.5028 658.9458 339.9457 776.5029 339.9457 920.9995 C 339.9457 1065.4961 457.5028 1183.0527 601.9996 1183.0527 C 746.4966 1183.0527 864.0535 1065.4961 864.0535 920.9995 C 864.0535 776.5029 746.4966 658.9458 601.9996 658.9458 Z" fill="#f6f6f6"/>			</g>			<g>				<path d="M 601.9996 1163.23 C 537.3008 1163.23 476.472 1138.0322 430.7194 1092.2803 C 384.9668 1046.5269 359.7699 985.6982 359.7699 920.9995 C 359.7699 856.3008 384.9668 795.4727 430.7194 749.7192 C 476.472 703.9668 537.3008 678.7695 601.9996 678.7695 C 666.6984 678.7695 727.5267 703.9668 773.2793 749.7192 C 819.0325 795.4727 844.2295 856.3008 844.2295 920.9995 C 844.2295 985.6982 819.0325 1046.5269 773.2793 1092.2803 C 727.5267 1138.0322 666.6984 1163.23 601.9996 1163.23 ZM 601.9996 682.0557 C 470.2455 682.0557 363.0559 789.2451 363.0559 920.9995 C 363.0559 1052.7539 470.2455 1159.9434 601.9996 1159.9434 C 733.7537 1159.9434 840.9434 1052.7539 840.9434 920.9995 C 840.9434 789.2451 733.7537 682.0557 601.9996 682.0557 Z" fill="#f6f6f6"/>			</g>			<g>				<path d="M 601.9996 1139.5488 C 543.3588 1139.5488 488.2262 1116.7104 446.7574 1075.2422 C 405.2885 1033.7734 382.4507 978.6406 382.4507 919.9995 C 382.4507 861.3584 405.2885 806.2261 446.7574 764.7573 C 488.2262 723.2881 543.3588 700.4502 601.9996 700.4502 C 660.6401 700.4502 715.7726 723.2881 757.2417 764.7573 C 798.7104 806.2261 821.5483 861.3584 821.5483 919.9995 C 821.5483 978.6396 798.7104 1033.7734 757.2417 1075.2422 C 715.7726 1116.7104 660.6401 1139.5488 601.9996 1139.5488 ZM 601.9996 704.166 C 482.9883 704.166 386.166 800.9883 386.166 919.9995 C 386.166 1039.0107 482.9883 1135.8335 601.9996 1135.8335 C 721.0109 1135.8335 817.8333 1039.0107 817.8333 919.9995 C 817.8333 800.9883 721.0109 704.166 601.9996 704.166 Z" fill="#f6f6f6"/>			</g>			<g>				<path d="M 601.9996 1117.8662 C 549.417 1117.8662 499.9799 1097.3882 462.7952 1060.2041 C 425.6105 1023.0195 405.132 973.582 405.132 920.9995 C 405.132 868.4165 425.6105 818.9795 462.7952 781.7954 C 499.9799 744.6104 549.417 724.1323 601.9996 724.1323 C 654.5818 724.1323 704.0189 744.6104 741.2036 781.7954 C 778.3882 818.9795 798.8667 868.4175 798.8667 920.9995 C 798.8667 973.582 778.3882 1023.0195 741.2036 1060.2041 C 704.0189 1097.3882 654.5822 1117.8662 601.9996 1117.8662 ZM 601.9996 728.2759 C 495.7314 728.2759 409.2758 814.7314 409.2758 920.9995 C 409.2758 1027.2676 495.7314 1113.7227 601.9996 1113.7227 C 708.2677 1113.7227 794.7231 1027.2676 794.7231 920.9995 C 794.7231 814.7314 708.2677 728.2759 601.9996 728.2759 Z" fill="#f6f6f6"/>			</g>			<g>				<path d="M 601.9996 1095.1855 C 505.9529 1095.1855 427.8137 1017.0464 427.8137 920.9995 C 427.8137 824.9531 505.9529 746.814 601.9996 746.814 C 698.0459 746.814 776.1851 824.9531 776.1851 920.9995 C 776.1851 1017.0464 698.0459 1095.1855 601.9996 1095.1855 ZM 601.9996 751.3857 C 508.4742 751.3857 432.3859 827.4746 432.3859 920.9995 C 432.3859 1014.5254 508.4742 1090.6133 601.9996 1090.6133 C 695.5245 1090.6133 771.6128 1014.5254 771.6128 920.9995 C 771.6128 827.4746 695.5245 751.3857 601.9996 751.3857 Z" fill="#f6f6f6"/>			</g>			<g>				<path d="M 601.9996 1072.5039 C 518.4596 1072.5039 450.495 1004.5391 450.495 920.9995 C 450.495 837.46 518.4596 769.4951 601.9996 769.4951 C 685.5392 769.4951 753.5039 837.46 753.5039 920.9995 C 753.5039 1004.5391 685.5392 1072.5039 601.9996 1072.5039 ZM 601.9996 774.4961 C 521.2174 774.4961 455.4963 840.2173 455.4963 920.9995 C 455.4963 1001.7822 521.2174 1067.5034 601.9996 1067.5034 C 682.7817 1067.5034 748.5024 1001.7822 748.5024 920.9995 C 748.5024 840.2173 682.7817 774.4961 601.9996 774.4961 Z" fill="#f6f6f6"/>			</g>			<g>				<path d="M 601.9996 1049.8218 C 530.9663 1049.8218 473.1763 992.0332 473.1763 920.9995 C 473.1763 849.9663 530.9663 792.1763 601.9996 792.1763 C 673.0325 792.1763 730.8221 849.9663 730.8221 920.9995 C 730.8221 992.0332 673.0325 1049.8218 601.9996 1049.8218 ZM 601.9996 797.606 C 533.9602 797.606 478.6061 852.9604 478.6061 920.9995 C 478.6061 989.0386 533.9602 1044.3926 601.9996 1044.3926 C 670.0386 1044.3926 725.3922 989.0386 725.3922 920.9995 C 725.3922 852.9604 670.0386 797.606 601.9996 797.606 Z" fill="#f6f6f6"/>			</g>			<g>				<path d="M 601.9996 1027.1416 C 543.4727 1027.1416 495.8575 979.5264 495.8575 920.9995 C 495.8575 862.4727 543.4727 814.8579 601.9996 814.8579 C 660.5261 814.8579 708.1407 862.4727 708.1407 920.9995 C 708.1407 979.5264 660.5261 1027.1416 601.9996 1027.1416 ZM 601.9996 820.7158 C 546.7029 820.7158 501.7158 865.7031 501.7158 920.9995 C 501.7158 976.2954 546.7029 1021.2822 601.9996 1021.2822 C 657.2959 1021.2822 702.2826 976.2954 702.2826 920.9995 C 702.2826 865.7031 657.2959 820.7158 601.9996 820.7158 Z" fill="#f6f6f6"/>			</g>			<g>				<path d="M 601.9996 1003.46 C 555.9794 1003.46 518.5388 966.0195 518.5388 919.9995 C 518.5388 873.979 555.9794 836.5381 601.9996 836.5381 C 648.0194 836.5381 685.4587 873.979 685.4587 919.9995 C 685.4587 966.0195 648.0194 1003.46 601.9996 1003.46 ZM 601.9996 842.8262 C 559.4462 842.8262 524.8259 877.4463 524.8259 919.9995 C 524.8259 962.5532 559.4462 997.1724 601.9996 997.1724 C 644.5527 997.1724 679.1716 962.5532 679.1716 919.9995 C 679.1716 877.4463 644.5527 842.8262 601.9996 842.8262 Z" fill="#f6f6f6"/>			</g>			<g>				<path d="M 601.9996 981.7778 C 568.4861 981.7778 541.2206 954.5132 541.2206 920.9995 C 541.2206 887.4863 568.4861 860.2207 601.9996 860.2207 C 635.5127 860.2207 662.7778 887.4863 662.7778 920.9995 C 662.7778 954.5132 635.5127 981.7778 601.9996 981.7778 ZM 601.9996 866.9365 C 572.1888 866.9365 547.9365 891.1895 547.9365 920.9995 C 547.9365 950.8101 572.1888 975.062 601.9996 975.062 C 631.8096 975.062 656.0619 950.8101 656.0619 920.9995 C 656.0619 891.1895 631.8096 866.9365 601.9996 866.9365 Z" fill="#f6f6f6"/>			</g>			<g>				<path d="M 601.9996 959.0967 C 580.9924 959.0967 563.9019 942.0059 563.9019 920.9995 C 563.9019 899.9922 580.9924 882.9019 601.9996 882.9019 C 623.006 882.9019 640.0961 899.9922 640.0961 920.9995 C 640.0961 942.0059 623.006 959.0967 601.9996 959.0967 ZM 601.9996 890.0459 C 584.932 890.0459 571.0463 903.9316 571.0463 920.9995 C 571.0463 938.0664 584.932 951.9521 601.9996 951.9521 C 619.0668 951.9521 632.9518 938.0664 632.9518 920.9995 C 632.9518 903.9316 619.0668 890.0459 601.9996 890.0459 Z" fill="#f6f6f6"/>			</g>		</g>	</g></svg>